<?xml version="1.0" encoding="UTF-8" standalone="no"?>
<!-- Generator: Adobe Illustrator 13.0.0, SVG Export Plug-In . SVG Version: 6.00 Build 14948)  -->

<svg
   version="1.2"
   id="Ebene_1"
   x="0px"
   y="0px"
   width="528"
   height="208"
   viewBox="74.938 2 528.00002 207.99999"
   xml:space="preserve"
   sodipodi:docname="apps.svg"
   inkscape:version="1.4.4 (dcaf3e7d9e, 2026-05-05)"
   inkscape:export-filename="apps.png"
   inkscape:export-xdpi="96"
   inkscape:export-ydpi="96"
   xmlns:inkscape="http://www.inkscape.org/namespaces/inkscape"
   xmlns:sodipodi="http://sodipodi.sourceforge.net/DTD/sodipodi-0.dtd"
   xmlns="http://www.w3.org/2000/svg"
   xmlns:svg="http://www.w3.org/2000/svg"><defs
   id="defs1"><rect
     x="57.945042"
     y="16.095844"
     width="139.0681"
     height="97.86274"
     id="rect1" /><filter
     style="color-interpolation-filters:sRGB"
     inkscape:label="Drop Shadow"
     id="filter14"
     x="-0.057550158"
     y="-0.036686834"
     width="1.1151003"
     height="1.0733737"><feFlood
       result="flood"
       in="SourceGraphic"
       flood-opacity="1.000000"
       flood-color="rgb(0,0,0)"
       id="feFlood13" /><feGaussianBlur
       result="blur"
       in="SourceGraphic"
       stdDeviation="1.100000"
       id="feGaussianBlur13" /><feOffset
       result="offset"
       in="blur"
       dx="0.000000"
       dy="0.000000"
       id="feOffset13" /><feComposite
       result="comp1"
       operator="in"
       in="flood"
       in2="offset"
       id="feComposite13" /><feComposite
       result="comp2"
       operator="over"
       in="SourceGraphic"
       in2="comp1"
       id="feComposite14" /></filter></defs><sodipodi:namedview
   id="namedview1"
   pagecolor="#ffffff"
   bordercolor="#000000"
   borderopacity="0.25"
   inkscape:showpageshadow="2"
   inkscape:pageopacity="0.0"
   inkscape:pagecheckerboard="0"
   inkscape:deskcolor="#d1d1d1"
   inkscape:zoom="1.5531958"
   inkscape:cx="242.72535"
   inkscape:cy="121.04076"
   inkscape:window-width="1920"
   inkscape:window-height="978"
   inkscape:window-x="1920"
   inkscape:window-y="28"
   inkscape:window-maximized="1"
   inkscape:current-layer="Ebene_1"
   showguides="true"><sodipodi:guide
     position="0,0"
     orientation="1,0"
     id="guide1"
     inkscape:locked="false" /><sodipodi:guide
     position="55.369709,208"
     orientation="0,-1"
     id="guide2"
     inkscape:locked="false" /><sodipodi:guide
     position="-22.534183,103.99999"
     orientation="0,-1"
     id="guide3"
     inkscape:locked="false" /><sodipodi:guide
     position="264.00001,236.00676"
     orientation="1,0"
     id="guide4"
     inkscape:locked="false" /></sodipodi:namedview>

<g
   id="g1"
   transform="translate(-12.975355,11.516587)"><path
     id="path18-6"
     style="display:inline;fill:none;fill-opacity:1;stroke:#edf2fb;stroke-width:4.69622;stroke-linecap:round;stroke-linejoin:round;stroke-dasharray:none;stroke-opacity:1;paint-order:fill markers stroke"
     d="m 178.70722,127.33833 20.27006,-11.70246 0.093,-0.0561 9.8e-4,-0.003 c 1.00714,-0.58054 1.84396,-1.41567 2.42657,-2.42164 0.57231,-1.0021 0.8875,-2.1638 0.88721,-3.31782 l 2e-4,-29.12222 8.1e-4,-0.109457 -5.8e-4,-0.0023 c -2e-4,-1.16281 -0.30633,-2.305099 -0.88727,-3.312174 l -1.8e-4,-9.2e-5 -25.44311,14.68866 m -37.56288,-5.675971 -2.7e-4,23.427274 0.002,0.10861 0.002,0.003 c -8.1e-4,1.16249 0.30402,2.30477 0.88392,3.31229 0.58168,0.9967 1.43014,1.85051 2.4297,2.42726 l 25.22045,14.56128 0.0944,0.0554 0.002,6e-4 c 1.00712,0.58123 2.14943,0.88725 3.31206,0.88769 l 1.7e-4,-1.2e-4 7.6e-4,-29.39134 m 23.681,-29.688543 -20.27038,-11.703421 -0.0951,-0.05248 -0.004,-3.7e-5 c -1.00635,-0.581943 -2.14801,-0.889093 -3.3105,-0.890649 -1.15401,0.0054 -2.31766,0.313287 -3.31691,0.890553 l -25.22067,14.560935 -0.0952,0.05403 -0.002,0.0017 c -1.00692,0.58158 -1.84311,1.417845 -2.4248,2.424486 l 2e-5,2.26e-4 25.45341,14.696417" /><path
     id="path61"
     style="-inkscape-font-specification:'Classic Robot';fill:#edf2fb;fill-opacity:1;stroke-width:33.3861;stroke-linecap:round;stroke-linejoin:round;paint-order:fill markers stroke"
     d="m 330.24937,77.141343 v 14.464744 h 0.074 V 149.6131 c 0,4.72538 2.41052,7.08753 7.23235,7.08753 4.7736,0 7.16157,-2.41053 7.16157,-7.23237 V 135.0035 h 36.23588 c 14.41726,0 21.6263,-7.23165 21.6263,-21.69709 V 98.838447 c 0,-14.465494 -7.23485,-21.697104 -21.70033,-21.697104 z m 14.53879,14.464744 h 36.09102 c 4.82183,0 7.23235,2.41048 7.23235,7.23236 v 14.467963 c 0,4.8218 -2.36213,7.23237 -7.08752,7.23237 h -36.23585 z" /><path
     id="path61-6"
     style="-inkscape-font-specification:'Classic Robot';fill:#edf2fb;fill-opacity:1;stroke-width:33.3861;stroke-linecap:round;stroke-linejoin:round;paint-order:fill markers stroke"
     d="m 409.62556,77.141343 v 14.464744 h 0.074 V 149.6131 c 0,4.72538 2.41057,7.08753 7.23239,7.08753 4.77359,0 7.16155,-2.41053 7.16155,-7.23237 V 135.0035 h 36.23587 c 14.41726,0 21.62631,-7.23165 21.62631,-21.69709 V 98.838447 c 0,-14.465494 -7.23485,-21.697104 -21.70033,-21.697104 z m 14.53877,14.464744 h 36.09106 c 4.82183,0 7.23235,2.41048 7.23235,7.23236 v 14.467963 c 0,4.8218 -2.36214,7.23237 -7.08753,7.23237 h -36.23588 z" /><path
     id="path72"
     style="-inkscape-font-specification:'Classic Robot';fill:#edf2fb;fill-opacity:1;stroke-width:33.3861;stroke-linecap:round;stroke-linejoin:round;paint-order:fill markers stroke"
     d="m 506.06148,76.996503 c -12.00639,0 -18.00851,6.02793 -18.00851,18.082524 0,12.054583 6.02474,18.082543 18.0793,18.082543 h 43.39745 c 2.41088,0 3.6178,1.25208 3.6178,3.75942 0,2.41087 -1.20692,3.61779 -3.6178,3.61779 h -54.24439 c -4.82178,0 -7.23235,2.4105 -7.23235,7.23237 0,4.82178 2.41057,7.23235 7.23235,7.23235 h 54.24439 c 12.05478,0 18.1054,-6.02799 18.15334,-18.08251 -0.0481,-12.10293 -6.0988,-18.179263 -18.15334,-18.227383 h -43.39745 c -2.41087,0 -3.61457,-1.20366 -3.61457,-3.61458 0,-2.31477 1.2037,-3.52172 3.61457,-3.61778 h 54.17358 c 4.82188,0 7.23237,-2.410613 7.23237,-7.232384 0,-4.77368 -2.41049,-7.16156 -7.23237,-7.16156 z" /><path
     id="path71"
     style="-inkscape-font-specification:'Classic Robot';fill:#edf2fb;fill-opacity:1;stroke-width:33.3861;stroke-linecap:round;stroke-linejoin:round;paint-order:fill markers stroke"
     d="m 270.14699,55.444233 -39.77964,72.397727 c 0,4.77358 3.61421,7.16154 10.84695,7.16154 l 8.0306,-14.46472 h 56.26894 l 8.02737,14.46472 c 7.23273,0 10.85016,-2.41055 10.85016,-7.23235 L 284.61173,55.444233 Z m 7.23238,14.46472 20.10707,36.165097 h -40.21415 z" /></g></svg>
