<?xml version="1.0" encoding="UTF-8" standalone="no"?>
<!-- Generator: Adobe Illustrator 13.0.0, SVG Export Plug-In . SVG Version: 6.00 Build 14948)  -->

<svg
   version="1.2"
   id="Ebene_1"
   x="0px"
   y="0px"
   width="528"
   height="208"
   viewBox="74.938 2 528.00002 207.99999"
   xml:space="preserve"
   sodipodi:docname="emuconfig.svg"
   inkscape:version="1.4.4 (dcaf3e7d9e, 2026-05-05)"
   inkscape:export-filename="emuconfig.png"
   inkscape:export-xdpi="96"
   inkscape:export-ydpi="96"
   xmlns:inkscape="http://www.inkscape.org/namespaces/inkscape"
   xmlns:sodipodi="http://sodipodi.sourceforge.net/DTD/sodipodi-0.dtd"
   xmlns="http://www.w3.org/2000/svg"
   xmlns:svg="http://www.w3.org/2000/svg"><defs
   id="defs1"><rect
     x="57.945042"
     y="16.095844"
     width="139.0681"
     height="97.86274"
     id="rect1" /><filter
     style="color-interpolation-filters:sRGB"
     inkscape:label="Drop Shadow"
     id="filter14"
     x="-0.057550158"
     y="-0.036686834"
     width="1.1151003"
     height="1.0733737"><feFlood
       result="flood"
       in="SourceGraphic"
       flood-opacity="1.000000"
       flood-color="rgb(0,0,0)"
       id="feFlood13" /><feGaussianBlur
       result="blur"
       in="SourceGraphic"
       stdDeviation="1.100000"
       id="feGaussianBlur13" /><feOffset
       result="offset"
       in="blur"
       dx="0.000000"
       dy="0.000000"
       id="feOffset13" /><feComposite
       result="comp1"
       operator="in"
       in="flood"
       in2="offset"
       id="feComposite13" /><feComposite
       result="comp2"
       operator="over"
       in="SourceGraphic"
       in2="comp1"
       id="feComposite14" /></filter></defs><sodipodi:namedview
   id="namedview1"
   pagecolor="#ffffff"
   bordercolor="#000000"
   borderopacity="0.25"
   inkscape:showpageshadow="2"
   inkscape:pageopacity="0.0"
   inkscape:pagecheckerboard="0"
   inkscape:deskcolor="#d1d1d1"
   inkscape:zoom="1.5531958"
   inkscape:cx="242.72535"
   inkscape:cy="121.04076"
   inkscape:window-width="1920"
   inkscape:window-height="978"
   inkscape:window-x="1920"
   inkscape:window-y="28"
   inkscape:window-maximized="1"
   inkscape:current-layer="Ebene_1"
   showguides="true"><sodipodi:guide
     position="0,0"
     orientation="1,0"
     id="guide1"
     inkscape:locked="false" /><sodipodi:guide
     position="55.369709,208"
     orientation="0,-1"
     id="guide2"
     inkscape:locked="false" /><sodipodi:guide
     position="-22.534183,103.99999"
     orientation="0,-1"
     id="guide3"
     inkscape:locked="false" /><sodipodi:guide
     position="264.00001,236.00676"
     orientation="1,0"
     id="guide4"
     inkscape:locked="false" /></sodipodi:namedview>

<path
   id="path18-6"
   style="display:inline;fill:none;fill-opacity:1;stroke:#edf2fb;stroke-width:4.69622;stroke-linecap:round;stroke-linejoin:round;stroke-dasharray:none;stroke-opacity:1;paint-order:fill markers stroke"
   d="m 129.13202,138.05091 20.27006,-11.70246 0.093,-0.0561 9.8e-4,-0.003 c 1.00714,-0.58054 1.84396,-1.41567 2.42657,-2.42164 0.57231,-1.0021 0.8875,-2.1638 0.88721,-3.31782 l 2e-4,-29.122217 8.1e-4,-0.109457 -5.8e-4,-0.0023 c -2e-4,-1.16281 -0.30633,-2.305099 -0.88727,-3.312174 l -1.8e-4,-9.2e-5 -25.44311,14.68866 m -37.562881,-5.675971 -2.78e-4,23.427271 0.0022,0.10861 0.0016,0.003 c -8.05e-4,1.16249 0.304023,2.30477 0.88392,3.31229 0.581682,0.9967 1.430144,1.85051 2.4297,2.42726 l 25.220459,14.56128 0.0944,0.0554 0.002,6e-4 c 1.00712,0.58123 2.14943,0.88725 3.31206,0.88769 l 1.7e-4,-1.2e-4 7.6e-4,-29.39134 m 23.681,-29.68854 -20.27038,-11.703421 -0.0951,-0.05248 -0.004,-3.7e-5 c -1.00635,-0.581943 -2.14801,-0.889093 -3.3105,-0.890649 -1.15401,0.0054 -2.31766,0.313287 -3.31691,0.890553 l -25.220676,14.560935 -0.0952,0.05403 -0.0016,0.0017 c -1.006921,0.58158 -1.843106,1.417845 -2.424794,2.424486 l 1.3e-5,2.26e-4 25.453417,14.696417" /><path
   style="font-size:77.7113px;font-family:Cabin;-inkscape-font-specification:Cabin;fill:#edf2fb;stroke-width:53.2219;paint-order:stroke markers fill"
   d="m 209.04693,129.72173 q -7.89203,0 -13.27504,-3.23892 -5.38302,-3.23893 -8.16575,-8.57632 -2.73712,-5.38301 -2.73712,-11.81525 0,-6.249771 2.55463,-11.450303 2.60028,-5.200533 7.48147,-8.302607 4.92682,-3.147692 11.86088,-3.147692 5.56548,0 9.89926,2.235318 4.37939,2.189699 6.84281,6.432239 2.50903,4.196924 2.50903,10.218595 0,0.958 -0.0913,2.09846 -0.0456,1.09485 -0.27372,2.28094 H 193.2628 q 0.59304,6.20415 2.96522,9.67117 2.37217,3.46702 5.97605,4.8812 3.60388,1.41418 7.84642,1.41418 3.10207,0 6.47786,-0.63866 3.37578,-0.63866 6.38661,-2.00722 l 1.09486,6.47785 q -2.60026,1.14047 -6.34101,2.32656 -3.74073,1.14046 -8.62194,1.14046 z m -15.05417,-28.92226 h 23.53926 q 0,-3.147701 -1.18609,-5.474252 -1.18609,-2.326554 -3.60388,-3.55826 -2.4178,-1.277324 -6.15853,-1.277324 -5.47425,0 -8.43946,2.737123 -2.9196,2.691502 -4.1513,7.572713 z m 40.32686,28.00989 V 84.103013 h 6.38662 l 1.64227,8.576319 -3.10207,-1.459799 q 4.19692,-4.516252 8.16576,-6.249764 3.96882,-1.779131 8.34821,-1.779131 3.28455,0 6.29539,1.09485 3.05646,1.049231 5.47425,3.740735 2.46341,2.645885 3.92321,7.390232 l -2.28093,-1.003612 q 2.00721,-5.200534 6.15851,-8.21137 4.15131,-3.010835 11.17659,-3.010835 5.61111,0 9.44308,2.098461 3.83197,2.052843 5.74796,6.341003 1.9616,4.242537 1.9616,10.811638 v 26.36762 h -8.21137 v -26.27638 q 0,-6.295391 -2.4634,-9.169367 -2.46342,-2.873979 -8.0289,-2.873979 -3.92321,0 -6.29539,1.231705 -2.37217,1.186086 -3.60388,3.102073 -1.18608,1.915987 -1.59665,4.060067 -0.36495,2.144081 -0.36495,4.014451 v 25.91143 h -8.21137 v -24.63411 q 0,-5.474251 -1.32294,-8.439461 -1.32294,-2.965219 -3.69512,-4.105686 -2.37217,-1.140468 -5.47425,-1.140468 -4.51626,0 -8.07451,2.007222 -3.55826,1.961605 -4.78996,6.295382 l 1.00362,-4.470633 v 34.487754 z m 96.07309,0.91237 q -5.24615,0 -8.94127,-2.09845 -3.69511,-2.14409 -5.65672,-6.47786 -1.91598,-4.33378 -1.91598,-11.03973 V 84.103013 h 8.21136 v 23.721737 q 0,7.11652 2.41779,10.85726 2.46342,3.74073 7.98328,3.74073 3.78635,0 7.02529,-1.82475 3.23892,-1.82475 4.47063,-5.83919 l -1.18609,4.47063 V 84.103013 h 8.21137 v 44.706347 h -7.29899 l -1.64228,-8.75879 2.18971,1.4598 q -2.23533,4.1513 -5.47425,6.20414 -3.19331,2.00722 -8.39385,2.00722 z m 52.27908,0 q -7.5727,0 -12.72761,-3.05645 -5.10931,-3.10207 -7.75519,-8.3026 -2.60027,-5.24616 -2.60027,-11.63278 0,-6.66033 2.50902,-11.997726 2.55466,-5.33739 7.80081,-8.439462 5.24615,-3.102074 13.4119,-3.102074 3.51264,0 6.61472,0.729901 3.14769,0.684281 5.6111,1.915985 l -1.27732,7.207757 q -2.50904,-1.186086 -5.3374,-1.870366 -2.78274,-0.684281 -5.79358,-0.684281 -7.39023,0 -11.26782,4.196922 -3.87759,4.196923 -3.87759,11.678394 0,7.299 3.69512,11.72401 3.69512,4.42502 11.26782,4.42502 3.10208,0 5.93044,-0.7299 2.87397,-0.7299 5.47424,-2.00722 l 1.09485,6.56909 q -1.82474,1.27733 -5.33738,2.32655 -3.51265,1.04923 -7.43586,1.04923 z m 39.77956,0 q -7.02529,0 -11.99772,-3.10207 -4.92683,-3.14769 -7.57271,-8.39384 -2.60027,-5.29177 -2.60027,-11.76963 0,-6.477861 2.60027,-11.724016 2.64588,-5.291769 7.57271,-8.393844 4.97243,-3.147692 11.99772,-3.147692 6.97966,0 11.95209,3.147692 4.97245,3.102075 7.57271,8.393844 2.64589,5.246155 2.64589,11.724016 0,6.47786 -2.64589,11.76963 -2.60026,5.24615 -7.57271,8.39384 -4.97243,3.10207 -11.95209,3.10207 z m 0,-7.29899 q 6.66033,0 10.21859,-4.19692 3.55826,-4.24254 3.55826,-11.76963 0,-7.527091 -3.55826,-11.724016 -3.55826,-4.24254 -10.21859,-4.24254 -6.61472,0 -10.21859,4.24254 -3.55826,4.196925 -3.55826,11.724016 0,7.52709 3.55826,11.76963 3.60387,4.19692 10.21859,4.19692 z m 30.65572,6.38662 V 84.103013 h 6.38661 l 1.64227,8.576319 -3.1933,-1.368562 q 4.51626,-5.018058 8.80441,-6.569094 4.33378,-1.551038 8.43947,-1.551038 9.80802,0 14.00494,5.656721 4.24255,5.656722 4.24255,15.327891 v 24.63411 h -8.21137 v -24.63411 q 0,-7.116521 -2.64589,-10.401067 -2.64589,-3.284548 -9.03252,-3.284548 -4.51625,0 -8.3026,2.007222 -3.74073,1.961605 -4.92682,6.295382 l 1.00362,-5.018056 v 35.035177 z m 53.64768,0 V 90.489634 h -7.75518 l 1.09484,-6.386621 h 6.66034 V 73.519471 q 0,-5.976052 3.19331,-9.534312 3.19331,-3.603878 9.39745,-3.603878 2.28094,0 3.96884,0.319331 1.7335,0.31933 3.14769,0.866755 l -1.27733,6.934045 q -1.09485,-0.410568 -2.14408,-0.593043 -1.04923,-0.228094 -2.41779,-0.228094 -2.64589,0 -4.1513,1.505418 -1.50542,1.4598 -1.50542,4.881203 v 10.036118 h 12.04334 v 6.386621 h -12.04334 v 38.319725 z m 27.09745,0 V 84.103013 h 8.21136 v 44.706347 z m 0,-54.742465 v -9.123743 h 8.21136 v 9.123743 z m 37.40734,77.551825 q -6.11291,0 -10.9485,-1.50542 -4.78995,-1.50542 -7.5727,-4.47063 -2.73713,-2.96522 -2.73713,-7.34462 0,-3.64949 2.05286,-6.29538 2.09846,-2.60026 5.70233,-4.19692 -2.14408,-1.04923 -3.28454,-2.46341 -1.09486,-1.4598 -1.09486,-3.19331 0,-2.05284 1.2317,-3.69512 1.27733,-1.68789 4.06008,-2.78274 -3.74075,-2.32655 -5.74798,-6.24976 -2.0072,-3.96883 -2.0072,-8.80442 0,-4.881201 2.1897,-8.804414 2.18969,-3.968828 6.29538,-6.295382 4.15129,-2.326556 9.94487,-2.326556 3.10207,0 5.8392,0.912375 2.78275,0.912375 5.1093,2.554648 2.05284,-1.186086 4.83558,-1.961605 2.82836,-0.775517 6.29538,-0.775517 0.2281,0 0.36495,0 0.18248,0 0.36495,0 l -1.00361,5.474245 q -0.54742,0 -1.04924,0 -0.5018,0 -1.04923,0 -0.45618,0 -2.09846,0.136856 -1.64226,0.136857 -3.01082,0.501806 1.87036,2.189699 2.87397,4.926822 1.04923,2.691501 1.04923,5.656722 0,5.1093 -2.23531,9.16937 -2.18969,4.01444 -6.34101,6.38662 -4.1513,2.32655 -9.94488,2.32655 -1.64227,0 -3.14769,-0.18247 -1.50542,-0.2281 -2.87398,-0.63867 -2.09846,0.68429 -2.09846,2.37218 0,1.00361 1.18608,1.77913 1.1861,0.7299 3.83197,1.14047 l 11.95212,1.91598 q 7.25337,1.14047 11.17658,4.19692 3.96883,3.05646 3.96883,8.66756 0,4.65311 -2.73712,7.70956 -2.69151,3.10208 -7.66396,4.60749 -4.97242,1.55104 -11.67838,1.55104 z m 0.7299,-7.29899 q 6.29539,0 9.67116,-1.64228 3.37578,-1.59665 3.37578,-4.74434 0,-2.46342 -2.14406,-3.8776 -2.09846,-1.41418 -6.0673,-2.14408 l -12.72762,-2.14407 q -2.50903,1.09484 -4.37939,2.91959 -1.87038,1.87037 -1.87038,4.33378 0,3.83197 3.83198,5.56548 3.87758,1.73352 10.30983,1.73352 z m -2.64589,-32.38929 q 5.20053,0 7.93766,-3.10208 2.73712,-3.14769 2.73712,-8.12013 0,-4.789971 -2.73712,-7.846422 -2.73713,-3.102075 -7.93766,-3.102075 -5.20054,0 -7.89204,3.102075 -2.6915,3.056451 -2.6915,7.846422 0,4.97244 2.6915,8.12013 2.6915,3.10208 7.89204,3.10208 z"
   id="text2"
   aria-label="emuconfig" /></svg>
